<?xml version="1.0" ?>
<!-- Uploaded to: SVG Repo, www.svgrepo.com, Generator: SVG Repo Mixer Tools -->
<svg width="800px" height="800px" viewBox="0 -41.86 230.94 230.94" xmlns="http://www.w3.org/2000/svg">
<defs>
<style>.cls-1{fill:#ffc742;}.cls-2{fill:#275563;}.cls-3{fill:#f7ead0;}.cls-3,.cls-9{opacity:0.5;}.cls-4,.cls-7{fill:#ffffff;}.cls-5{fill:#efa536;}.cls-6,.cls-7{opacity:0.7;}.cls-8{fill:#908152;}.cls-10,.cls-9{fill:#d9f0ff;}</style>
</defs>
<title/>
<g data-name="Layer 2" id="Layer_2">
<g data-name="Layer 1" id="Layer_1-2">
<path class="cls-1" d="M226.94,12.94V133.33a8.94,8.94,0,0,1-8.94,8.94H200.82l-1.69,2.45.61-1.06.93-1.39H12.94A9,9,0,0,1,4,133.33V12.94A8.94,8.94,0,0,1,12.94,4H218A8.94,8.94,0,0,1,226.94,12.94Z"/>
<path class="cls-2" d="M162.22,98.8H120.57a4,4,0,0,1,0-8h41.65a4,4,0,0,1,0,8Z"/>
<path class="cls-2" d="M189.89,116.32H120.57a4,4,0,0,1,0-8h69.32a4,4,0,0,1,0,8Z"/>
<rect class="cls-3" height="9.65" width="221.21" x="5.79" y="7.08"/>
<polyline class="cls-4" points="224.12 39.98 226.94 39.98 226.94 73.94 4 73.94 4 39.98 139.63 39.98"/>
<path class="cls-2" d="M226.55,44H4a4,4,0,0,1,0-8H226.55a4,4,0,0,1,0,8Z"/>
<path class="cls-2" d="M226.55,77.94H4a4,4,0,0,1,0-8H226.55a4,4,0,0,1,0,8Z"/>
<rect class="cls-5" height="9.13" width="218.98" x="5.78" y="132.82"/>
<g class="cls-6">
<path class="cls-4" d="M16.28,115.49a3,3,0,0,1-3-3V101.22a3,3,0,0,1,6,0v11.27A3,3,0,0,1,16.28,115.49Z"/>
<path class="cls-4" d="M16.28,94.77a3,3,0,0,1-3-3v-6.1a3,3,0,0,1,6,0v6.1A3,3,0,0,1,16.28,94.77Z"/>
</g>
<circle class="cls-7" cx="16.24" cy="122.46" r="3.56"/>
<ellipse class="cls-8" cx="66.37" cy="79.03" rx="43.89" ry="43.96"/>
<circle class="cls-4" cx="66.72" cy="68.03" r="43.96"/>
<path class="cls-9" d="M111.4,67.7a44,44,0,1,1-85.65-14C29.36,74,48,92.33,67.44,92.33s37.09-14.7,41.69-38.59A43.73,43.73,0,0,1,111.4,67.7Z"/>
<path class="cls-10" d="M111,67A44,44,0,1,1,23.1,67a44.48,44.48,0,0,1,.37-5.73,44,44,0,0,0,87.18,0A44.51,44.51,0,0,1,111,67Z"/>
<path class="cls-2" d="M65.59,114.34a48,48,0,1,1,48-48A48,48,0,0,1,65.59,114.34Zm0-87.92a40,40,0,1,0,40,40A40,40,0,0,0,65.59,26.42Z"/>
<path class="cls-2" d="M218,146.27H154a4,4,0,0,1,0-8h64a4.94,4.94,0,0,0,4.94-4.94V12.94A4.94,4.94,0,0,0,218,8H12.94A4.94,4.94,0,0,0,8,12.94V133.33a4.95,4.95,0,0,0,4.94,4.94H99a4,4,0,1,1,0,8h-86A13,13,0,0,1,0,133.33V12.94A13,13,0,0,1,12.94,0H218a13,13,0,0,1,12.94,12.94V133.33A13,13,0,0,1,218,146.27Z"/>
<path class="cls-2" d="M54.75,66.41a3.22,3.22,0,0,1,.59-2,1.86,1.86,0,0,1,1.56-.8h5.77V57.72a2,2,0,0,1,.86-1.59,3.16,3.16,0,0,1,2-.7,3,3,0,0,1,2,.7,2.06,2.06,0,0,1,.81,1.59v5.91h5.72a2,2,0,0,1,1.56.82,2.92,2.92,0,0,1,.7,2,2.86,2.86,0,0,1-.67,2,2.05,2.05,0,0,1-1.59.77H68.45v6a2,2,0,0,1-.78,1.62,3.27,3.27,0,0,1-2.08.61,3.41,3.41,0,0,1-2.08-.61,1.91,1.91,0,0,1-.84-1.62v-6H56.91a1.9,1.9,0,0,1-1.56-.74A3.08,3.08,0,0,1,54.75,66.41Z"/>
<path class="cls-2" d="M117.4,147.21a4,4,0,0,1-.05-8l7.3-.09h.05a4,4,0,0,1,.05,8l-7.3.09Z"/>
<path class="cls-2" d="M137.4,146.95a4,4,0,0,1-.05-8h.3a4,4,0,1,1,.1,8h-.36Z"/>
</g>
</g>
</svg>